G04 Layer: TopLayer*
G04 EasyEDA v6.5.47, 2024-10-11 02:17:36*
G04 14285fc0a42144bbae4d0c78d6d6beb8,143eb33344fd4f53ace86dd544093ce2,10*
G04 Gerber Generator version 0.2*
G04 Scale: 100 percent, Rotated: No, Reflected: No *
G04 Dimensions in millimeters *
G04 leading zeros omitted , absolute positions ,4 integer and 5 decimal *
%FSLAX45Y45*%
%MOMM*%

%ADD10C,2.0000*%
%ADD11C,1.5240*%

%LPD*%
D10*
X499920Y-9349994D02*
G01*
X499920Y-3050014D01*
X599937Y-2949996D01*
X599937Y-2150021D01*
X1349931Y-9349994D02*
G01*
X1349931Y-7949981D01*
X1149931Y-7749981D01*
X1149931Y-4949992D01*
X2199942Y-9349994D02*
G01*
X2199942Y-7099978D01*
X2649933Y-6649986D01*
X2649933Y-5950000D01*
X2649928Y-3499993D02*
G01*
X1899930Y-3499993D01*
X1149931Y-4499990D02*
G01*
X1899930Y-4499990D01*
X4149925Y-4499990D02*
G01*
X3899926Y-4499990D01*
X3749926Y-4349991D01*
X3749926Y-3899992D01*
X3349927Y-3499993D01*
X2649928Y-3499993D01*
X2649928Y-5499988D02*
G01*
X2249929Y-5499988D01*
X1899930Y-5149989D01*
X1899930Y-2247259D01*
X1352666Y-1699996D01*
X3900017Y-9349994D02*
G01*
X3900017Y-8349889D01*
X4149923Y-8099983D01*
X4149849Y-4949949D01*
X3049927Y-9349994D02*
G01*
X3049927Y-7449987D01*
X3449927Y-7049988D01*
X3449927Y-5199992D01*
X2649933Y-4399991D01*
X2649933Y-3950004D01*
X4749924Y-9349994D02*
G01*
X4749924Y-2649992D01*
X3799928Y-1699996D01*
X599925Y-1699996D01*
D11*
G01*
X3900017Y-9349994D03*
G01*
X3049981Y-9349994D03*
G01*
X1350010Y-9349994D03*
G01*
X2199995Y-9349994D03*
G01*
X500024Y-9349994D03*
G01*
X4750003Y-9349994D03*
G01*
X4150004Y-4950002D03*
G01*
X4150004Y-4499990D03*
G01*
X2650007Y-3950004D03*
G01*
X2650007Y-3499993D03*
G01*
X1150010Y-4950002D03*
G01*
X1150010Y-4499990D03*
G01*
X2650007Y-5950000D03*
G01*
X2650007Y-5499988D03*
G01*
X600024Y-2150008D03*
G01*
X600024Y-1699996D03*
M02*
