M48
METRIC,LZ,000.000
;FILE_FORMAT=3:3
;TYPE=PLATED
;Layer: PTH_Through
;EasyEDA v6.5.47, 2024-09-17 03:59:16
;487bb63bfa8c49d2a093c741e473701e,143eb33344fd4f53ace86dd544093ce2,10
;Gerber Generator version 0.2
;Holesize 1 = 0.915 mm
T01C0.915
%
G05
G90
T01
X013500Y-093500
X022000Y-093500
X039000Y-093500
X030500Y-093500
X047500Y-093500
X005000Y-093500
X011000Y-049500
X011000Y-045000
X026000Y-039500
X026000Y-035000
X041000Y-049500
X041000Y-045000
X026000Y-059500
X026000Y-055000
X046500Y-021500
X046500Y-017000
X011000Y-040500
X026000Y-030500
X041000Y-040500
X026000Y-050500
X046500Y-012500
M30
